<?xml version="1.0" encoding="UTF-8" standalone="no"?>
<svg xmlns="http://www.w3.org/2000/svg" xml:space="preserve" width="494.99936" height="153.11746">
  <path fill="#90c541" d="M48.47372 66.5224v13.0845c0 2.88201.29975 5.37076.90475 7.46351.5775 2.00475 1.43825 3.674 2.58225 4.9995 1.11375 1.2815 2.50526 2.2495 4.17176 2.89851 1.738.6765 3.80325 1.01475 6.1985 1.01475 2.618 0 4.884-.4565 6.78701-1.37225 1.86175-.89376 3.4265-2.24401 4.68325-4.05901l.008-.0138c1.32275-1.8755 2.321-4.25975 2.9975-7.139.69575-2.9755 1.04225-6.47626 1.04225-10.49401 0-3.7895-.34925-7.12525-1.056-9.99901-.69025-2.8105-1.71325-5.1865-3.069-7.12525l-.005-.008-.003.003c-1.29525-1.87825-2.8545-3.28075-4.675-4.2075l-.088-.0468c-1.80951-.89925-3.91326-1.3475-6.30301-1.3475-2.31 0-4.33675.34925-6.0775 1.045-1.6995.682-3.15426 1.705-4.36701 3.06075-1.2265 1.375-2.14775 3.05525-2.7665 5.04075-.64625 2.05975-.96525 4.46326-.96525 7.20226zm-4.4385-30.13452c.91575-.92401 1.837-1.78476 2.76925-2.58226 2.178-1.859 4.422-3.38525 6.7155-4.565h.003l-.003-.005c2.29351-1.16875 4.77401-2.057 7.44701-2.651 2.64825-.59125 5.4505-.88825 8.40951-.88825 5.9235 0 11.2475 1.10275 15.95551 3.3055 4.72175 2.20825 8.789 5.50826 12.19351 9.90001l.003-.003c3.37976 4.3395 5.90701 9.49576 7.58451 15.46876 1.65825 5.9015 2.486 12.58676 2.486 20.06126 0 6.86676-.847 13.08176-2.5465 18.63952-1.71325 5.61-4.29 10.52425-7.73026 14.74551-3.46225 4.268-7.49375 7.4745-12.08625 9.61675-4.58426 2.13676-9.71301 3.20926-15.37526 3.20926-2.34026 0-4.62276-.209-6.83101-.6215-2.178-.407-4.28175-1.02576-6.30025-1.84801-2.02401-.80575-4.00126-1.83975-5.92901-3.0965-.78375-.50875-1.55925-1.056-2.3265-1.63625v12.42726c0 .91025.066 1.64175.19525 2.19175l.12925.36575c.2035.38775.3905.47575.66825.55.451.12375 1.06975.18425 1.87.18425.4565 0 1.045-.0412 1.76-.11825.7425-.0797 1.6885-.20625 2.81876-.374 1.078-.1595 2.08725-.286 3.025-.37125.97075-.0935 1.75725-.1375 2.3595-.1375 1.80675 0 3.41825.25575 4.83725.7645 1.48775.53075 2.75825 1.342 3.81151 2.42275 1.045 1.06975 1.82875 2.35675 2.34575 3.85826.49775 1.44375.74525 3.0525.74525 4.8345 0 2.13125-.275 4.00675-.825 5.621-.583 1.71875-1.4795 3.14051-2.68126 4.25976-1.17425 1.0945-2.67575 1.914-4.5045 2.4475-1.716.50325-3.7125.7535-5.9895.7535-.143 0-1.08075-.0715-2.8655-.21175h-.008c-1.63075-.1265-3.817-.297-6.23976-.48125-2.93975-.2255-5.81075-.3905-8.60475-.49225-2.794-.10725-5.70351-.1595-8.71201-.1595-2.3155 0-4.576.0523-6.7705.15675-2.26875.11-4.53201.27225-6.78426.48675-2.8215.2695-4.94175.48125-6.094.59675l-.0577.003-.891.088c-.0605.005-.12375.008-.187.008v.005c-3.87475 0-6.82826-1.10275-8.85776-3.31375-1.02575-1.11375-1.782-2.49425-2.277-4.1305C.22825 144.13546 0 142.36721 0 140.3762c0-1.69675.22-3.267.6545-4.7025.45375-1.48225 1.13575-2.79675 2.05425-3.938.93775-1.1715 2.02675-2.05975 3.2615-2.66475 1.2485-.61325 2.60701-.9185 4.07826-.9185.54725 0 1.2045.044 1.98.13475.69025.0825 1.5235.21175 2.50525.3905.847.15675 1.58125.2805 2.2055.36575.53075.0715.96525.11275 1.30075.11275.39875 0 .70125-.0412.9075-.11825l.0715-.0247c.0165-.008.0302-.0192.0357-.0275l.0192-.0275c.055-.10725.11275-.33825.1705-.69575.0962-.58301.143-1.38051.143-2.39801v-72.1683c0-.979-.0523-1.727-.154-2.233-.0468-.22275.088-.198.0247-.253-.003-.003-.11275-.0303-.3245-.0743l-.0605-.0138c-.39875-.077-.935-.11825-1.60325-.11825-.2695 0-.66.0303-1.1605.088-.53625.0605-1.24025.1595-2.09.28875l-.0688.008c-.847.14025-1.6115.2475-2.29625.32175-.759.0825-1.397.12375-1.91125.12375-1.441 0-2.76651-.26675-3.96826-.78925-1.22375-.5335-2.288-1.32825-3.19-2.376l-.008-.008c-.8745-1.034-1.52625-2.244-1.955247-3.63-.407-1.3255-.61325-2.79675-.61325-4.4165 0-1.94976.2475-3.71526.73425-5.29651.503247-1.63075 1.264997-3.058 2.282497-4.28175l.0192-.022-.003-.003c1.05325-1.22925 2.30725-2.1615 3.74825-2.78575 1.419-.616 2.9865-.924 4.697-.924.517 0 1.3145.0468 2.38425.13475.8965.0715 2.19725.198 3.86101.3685h.0137c1.5125.16775 2.9095.29425 4.191.37675 1.2375.0797 2.398.121 3.49525.121 1.034 0 2.112-.0413 3.234-.121 1.21-.0852 2.43651-.209 3.67401-.3685l.0165-.003v-.005c1.177-.14025 2.1835-.25575 3.1845-.36025.87175-.0935 1.4465-.143 1.71875-.143 1.16325 0 2.1835.17875 3.05525.528 1.00925.40425 1.80125 1.03125 2.376 1.86725.0385.055.0742.1155.1045.17325.44275.726.76725 1.67475.968 2.85175.165 1.01475.26125 2.2385.27225 3.66576z"/>
  <path fill="#90c541" d="M127.35203 115.26893c-.5885-.4345-1.14126-.89375-1.65276-1.375-.0633.15675-.132.31075-.20075.45925-.62425 1.342-1.43 2.4585-2.42275 3.34125-1.9525 1.738-4.6585 2.629-8.1455 2.629-1.6335 0-3.09375-.2035-4.37251-.61325-1.38875-.44-2.5355-1.11375-3.42925-2.0075l.003-.003c-.9075-.9075-1.57575-2.03775-2.00475-3.39075h.005c-.4015-1.2595-.5995-2.7005-.5995-4.32025 0-.23925.0247-.6875.0715-1.32825l.003-.0385c.0275-.3795.0935-1.12751.20075-2.27976.0797-.87175.143-1.72425.18425-2.56575.0385-.72325.0577-1.4465.0577-2.178 0-.88-.0192-1.81225-.0577-2.783-.0412-1.02575-.1045-2.255-.1925-3.685-.0825-1.31725-.14575-2.49976-.1925-3.53926-.0495-1.089-.0715-1.8865-.0715-2.3925 0-1.6885.264-3.1845.7975-4.49625.55825-1.375 1.40525-2.5245 2.5465-3.4595 2.123-1.738 5.148-2.60975 9.1685-2.60975 2.84076 0 5.25526.74525 7.23526 2.233 1.9085 1.43275 3.35225 3.5255 4.33125 6.26725.0275.0605.0495.12375.0715.187.2145.65725.40975 1.21.59675 1.6555h-.003l.003.005c.143.34375.275.61325.39875.8085l.077.121c.6545 1.08625 1.4795 2.06525 2.47776 2.9315 1.023.88825 2.2495 1.6775 3.68225 2.3595v.008l.0192.008c1.4245.6985 2.9315 1.2265 4.50725 1.58125 1.562.34925 3.2175.52525 4.95275.52525 2.08451 0 3.90226-.14575 5.45601-.43725 1.49325-.2805 2.75-.693 3.77025-1.24025.8965-.48125 1.5565-1.04225 1.97725-1.67475v.003c.37675-.572.56375-1.25125.56375-2.035 0-1.18251-.814-2.30726-2.44475-3.37426-2.0405-1.33375-5.181-2.4915-9.42426-3.465l-.033-.005c-2.29625-.5665-4.301-1.08075-6.00875-1.53725-1.70225-.4565-3.2505-.8965-4.642-1.3255-4.94451-1.056-9.22351-2.387-12.82876-3.982-3.7235-1.64725-6.75401-3.5915-9.08876-5.81901l-.008-.005c-2.37325-2.27701-4.158-4.95276-5.34875-8.02451-1.177-3.036-1.76825-6.435-1.76825-10.19426 0-4.33125.8305-8.25 2.497-11.748 1.6665-3.50626 4.1635-6.57251 7.49101-9.20151 6.52575-5.159 15.21301-7.73851 26.08926-7.73851 2.70876 0 5.28276.17875 7.71926.539 2.43925.36025 4.73275.90475 6.86675 1.63076 2.17801.737 4.08651 1.61975 5.72826 2.651.42075.264.82225.539 1.20725.82225.044-.121.088-.242.1375-.36025.4785-1.1715 1.1935-2.14225 2.13675-2.92325l.1155-.0962c.9515-.74251 2.156-1.28151 3.608-1.62251 1.33925-.3135 2.90676-.4675 4.69426-.4675 1.5895 0 2.98375.15125 4.1745.462 1.33925.352 2.4255.91575 3.24775 1.69401l-.003.003c.836.76725 1.44925 1.74351 1.83975 2.92876.3575 1.08075.5335 2.343.5335 3.78675 0 .2915-.044.74525-.1265 1.364-.0715.539-.176 1.2045-.30525 1.991h-.003l-.005.0385c-.26125 1.4025-.3905 2.629-.3905 3.64925 0 .671.033 1.44375.10175 2.32376.0688.91575.17325 1.9635.3135 3.1405h-.003l.003.022c.1375 1.298.242 2.35125.30525 3.14325.0715.91575.11275 1.65.11275 2.19175 0 1.595-.21725 3.02225-.649 4.28175h-.005c-.46475 1.35301-1.166 2.49701-2.1065 3.43476-.946.946-2.09275 1.64725-3.43751 2.10925-1.2705.43725-2.70875.6545-4.3065.6545-2.31 0-4.47975-.56925-6.501-1.705-1.95525-1.1-3.74826-2.72525-5.37351-4.87576v-.003c-.671-.87175-1.254-1.60325-1.727-2.19175l.003-.003-.003-.005-.39325-.4895-.0358-.0385c-.99-1.1-1.9415-2.02676-2.85175-2.77476-.87725-.7205-1.72975-1.28975-2.5575-1.69675-.814-.39325-1.77375-.69575-2.8655-.902-1.1275-.21175-2.41726-.319-3.86651-.319-1.42175 0-2.6785.14025-3.773.42625-1.04225.27225-1.958.67925-2.739 1.21825v-.003c-.6985.49225-1.221 1.04225-1.55375 1.64726-.31075.561-.4675 1.2045-.4675 1.92225 0 1.1385.9625 2.23025 2.88475 3.28075l.13475.0633c2.53825 1.35025 6.42675 2.47775 11.66276 3.38525v.005l.0247.003 2.8655.5335c2.8765.53625 5.23325.9735 6.578 1.24025v.003l.0165.003c4.98576 1.03125 9.23726 2.3045 12.74076 3.8225 3.61076 1.56475 6.45151 3.40175 8.50576 5.50275 2.0845 2.13126 3.64375 4.75201 4.675 7.85401 1.00925 3.025 1.50975 6.4845 1.50975 10.37576 0 4.97475-.89375 9.42425-2.684 13.35126-1.80125 3.9545-4.49075 7.337-8.07675 10.153l-.003-.005c-3.53651 2.78851-7.74951 4.87026-12.63351 6.24526-4.8235 1.3585-10.30151 2.035-16.43126 2.035-3.27801 0-6.31126-.209-9.09701-.62425-2.81875-.42075-5.38175-1.05875-7.68075-1.90575v-.003c-2.34851-.8415-4.37251-1.903-6.08576-3.168z"/>
  <path fill="#90c541" d="M200.79358 54.06764c-.29975-.71225-.61325-1.342-.94325-1.881-.286-.4675-.58575-.86075-.89651-1.16875l-.0632-.066c-.23925-.21726-.4675-.37951-.6875-.48126-.17325-.0825-.3465-.12375-.52525-.12375-.26125 0-.59125.0275-.99275.0797-.4235.055-1.034.154-1.8205.28875l-.0247.003c-.7755.1485-1.47125.2585-2.07625.33275-.6765.0825-1.27325.12375-1.78475.12375-1.5125 0-2.92325-.297-4.23775-.891-1.298-.583-2.46951-1.45475-3.51176-2.6015l-.1045-.1265c-.968-1.1055-1.705-2.34025-2.2-3.69325h-.003c-.50875-1.38875-.7645-2.89575-.7645-4.5155 0-1.85076.28875-3.53926.87175-5.05726.59125-1.551 1.48775-2.91225 2.68676-4.0755l.0165-.0165c1.166-1.14125 2.52175-1.99925 4.06175-2.57125 1.52625-.5665 3.20375-.84975 5.01875-.84975.3025 0 .825.0248 1.562.0825.5335.0412 1.31175.1155 2.3375.22l.055.005c3.45126.34925 6.80076.6105 10.04851.78375 3.1845.1705 6.31676.253 9.39401.253 1.276 0 2.607-.055 3.993-.165 1.42725-.11275 2.904-.2805 4.43025-.5005l.11275-.0138c1.66925-.22825 2.92326-.39325 3.68776-.484 1.01475-.121 1.69125-.18425 2.035-.18425 3.24225 0 5.83825 1.1165 7.7825 3.35225.0358.0412.0715.0853.1045.12925.891 1.0725 1.562 2.321 2.01025 3.74825.4455 1.41625.671 2.99475.671 4.741 0 1.21275-.0935 2.29076-.286 3.23401-.21725 1.06425-.5665 1.9415-1.045 2.6345l-.0715.0962c-.48125.6875-1.15225 1.287-2.0185 1.80125-.76725.4565-1.716.86075-2.84625 1.2155-.165.0688-.33.132-.49225.187l-.099.0303c-.22275.0743-.40425.132-.55.17325-.759.22-1.2925.51425-1.6005.87175-.21175.25025-.3355.583-.3685.9955.0605.1705.132.363.20625.54175l.0105.033h.003c.1375.35475.264.6985.3795 1.034.11825.3465.21725.66275.30525.957l.005.0165 9.03101 25.78402c.33275.9185.62975 1.88375.88275 2.8765.1375.5445.26675 1.11925.385 1.7215.24475-.8415.517-1.705.814-2.59325h-.003l.22-.70675.0275-.0825c.0907-.2915.165-.5335.23925-.737l7.90351-25.05252.0468-.1265.13475-.4675h-.005c.11-.38775.231-.814.40425-1.3585l.003-.005h-.003c.2255-.69025.38775-1.221.48125-1.58675l.0853-.33825c-.0412-.0522-.1045-.1155-.17875-.18425-.2145-.165-.49775-.341-.86075-.53075-.41525-.21725-.9515-.45925-1.617-.71775-1.2155-.47575-2.277-1.0615-3.17075-1.7435l-.003-.003-.003.003c-.9515-.726-1.705-1.5565-2.25225-2.4805l-.033-.0577c-.5225-.88-.9075-1.91675-1.15226-3.10475-.23925-1.1495-.35475-2.431-.35475-3.83901 0-1.507.2365-2.89025.70951-4.14425l.044-.10725c.484-1.243 1.19075-2.3375 2.1175-3.278l.0165-.0165.0192-.0192c.968-.9625 2.08725-1.68575 3.3605-2.16975v-.003c1.25125-.47575 2.62625-.71225 4.12775-.71225.37125 0 1.06425.0632 2.0735.18425.84975.10175 2.1065.27225 3.72626.49775h.0138c1.4795.22 2.91775.38775 4.3065.5005 1.364.11 2.6895.165 3.9655.165 2.4805 0 4.89225-.055 7.23251-.165 2.45575-.1155 4.89225-.286 7.304-.50875h.008v-.008l6.2205-.539v-.008l1.27875-.11c.0577-.005.1155-.008.17325-.008h.033c1.80676.003 3.42926.286 4.86201.84975 1.49875.5885 2.7775 1.48225 3.82525 2.67575l.0192.022c1.023 1.15775 1.782 2.5355 2.27975 4.1305.48125 1.54825.7205 3.29175.7205 5.23326 0 1.65275-.23925 3.16525-.715 4.54025-.4895 1.419-1.22375 2.6565-2.1945 3.71525l-.0467.0495c-.99825 1.056-2.15325 1.8535-3.465 2.38425-1.3035.528-2.7445.79475-4.31751.79475-.649 0-1.63075-.16775-2.86275-.5005l-.0825-.0248c-.407-.0962-.7865-.176-1.13025-.23375-.28325-.0467-.517-.0715-.704-.0715-.6325 0-1.2265.0963-1.7765.2915v.003c-.5665.20075-1.10275.506-1.60325.913-.5335.4345-1.0175.95975-1.43825 1.5675-.43725.62975-.80575 1.33376-1.1 2.11201l-18.04002 47.90228c-2.9205 7.777-6.2095 14.58326-9.856 20.41051-3.68775 5.89326-7.75501 10.80751-12.19351 14.74001-4.4825 3.96001-9.35001 6.92726-14.60251 8.90451-5.2635 1.98-10.89826 2.97-16.90151 2.97-3.949 0-7.51851-.4895-10.71401-1.4685-3.25875-.99825-6.09675-2.497-8.51401-4.49075-.0412-.033-.0825-.0715-.11825-.10725-2.38425-2.0075-4.18275-4.36426-5.38725-7.06476-1.221-2.7335-1.83425-5.7915-1.83425-9.17125 0-2.27151.39875-4.36426 1.188-6.28101.79475-1.925 1.98-3.64375 3.553-5.15075l.0165-.0165c1.55375-1.496 3.33026-2.62625 5.32401-3.377 1.98275-.74526 4.158-1.11926 6.52575-1.11926 1.892 0 3.63825.31075 5.236.93501 1.61976.6325 3.06076 1.57575 4.31201 2.827.0412.044.0825.088.11825.132 1.1935 1.232 2.09275 2.6015 2.7005 4.0975.62975 1.5455.94325 3.21475.94325 5.00225v1.947l-.003.76726h.003c.033.0137.1045.0358.21175.0577.2585.0577.616.088 1.078.088 2.453 0 4.86475-1.36676 7.23526-4.09476 1.24025-1.46025 2.16975-2.95075 2.7775-4.477.59675-1.4905.89925-3.04975.89925-4.68325 0-.7535-.0632-1.53175-.18425-2.33751-.1265-.847-.308-1.71325-.539-2.59875-.2585-.9295-.671-2.17525-1.243-3.73175-.53625-1.46575-1.2045-3.16525-1.99925-5.082l-.0413-.1045-19.75052-46.59329z"/>
  <path fill="#90c541" d="M291.93964 73.2489c0-7.19675 1.05875-13.68951 3.1735-19.47826 2.13125-5.83551 5.33225-10.93401 9.59476-15.30101 4.27625-4.37801 9.2785-7.66976 14.99576-9.85601 5.67875-2.17525 12.05051-3.26425 19.10701-3.26425 11.11001 0 20.03926 2.45025 26.72177 7.348l.11275.088c3.377 2.48875 5.9235 5.39276 7.63125 8.70376 1.74076 3.3715 2.61251 7.1335 2.61251 11.28601 0 2.3705-.385 4.55125-1.15225 6.5395-.7755 2.00475-1.94151 3.7895-3.49526 5.34325l.003.003c-1.54825 1.56475-3.3165 2.74451-5.313 3.53926-1.97175.7865-4.12775 1.17975-6.47626 1.17975-2.299 0-4.4055-.253-6.3085-.7535-1.9635-.51425-3.696-1.2925-5.192-2.32651l-.022-.0165c-1.5455-1.09725-2.72251-2.38975-3.52001-3.86375-.8085-1.49325-1.21825-3.146-1.21825-4.95275 0-.5225.0743-1.133.22-1.82875.132-.62975.32175-1.3255.572-2.0845l.0303-.0908c.1705-.5665.30525-1.07525.4015-1.53176.0797-.37125.121-.65725.121-.8525 0-.11825-.253.0825-.7535-.1045l-.0358-.0138-.003.008c-.55-.21725-1.188-.3795-1.91675-.48675-.781-.1155-1.67475-.17325-2.67575-.17325-2.64 0-4.94725.46475-6.92175 1.397-1.947.9185-3.60801 2.30725-4.98026 4.16625-1.408 1.91126-2.47225 4.29001-3.19275 7.13076-.73975 2.92325-1.111 6.33875-1.111 10.24101 0 3.70425.3685 6.996 1.1055 9.867.72325 2.81876 1.80125 5.26351 3.23125 7.32051l.0385.0605c1.37775 1.947 2.97276 3.41275 4.78226 4.378 1.80675.96525 3.88025 1.44925 6.21775 1.44925 2.4695 0 4.576-.6215 6.31401-1.859l.1045-.0688c.80025-.58025 1.50425-1.298 2.10925-2.145.638-.891 1.166-1.9415 1.57575-3.135l.0577-.15125c.726-2.0515 1.49875-3.78951 2.31825-5.21401l-.005-.003c.891-1.55375 1.86175-2.7555 2.904-3.60525l.008-.005c1.067-.85525 2.288-1.4905 3.66575-1.90575l.0907-.0247c1.30625-.38225 2.75-.57475 4.33951-.57475 2.14225 0 4.103.3465 5.87675 1.03675 1.804.70125 3.3935 1.75175 4.76575 3.14326 1.37225 1.38875 2.4035 2.981 3.08826 4.77675.6765 1.771 1.01475 3.72625 1.01475 5.874 0 8.29951-3.77301 15.17176-11.31901 20.58102l-.12925.0853c-3.65475 2.6125-7.79901 4.576-12.43001 5.88225-4.6475 1.31175-9.77626 1.969-15.37526 1.969-13.48326 0-24.41727-4.4165-32.80202-13.25226-4.18551-4.411-7.33151-9.50675-9.42426-15.28176-2.08725-5.73925-3.13225-12.13851-3.13225-19.19226z"/>
  <path fill="#90c541" d="M443.87174 68.4364c0-2.06525-.0853-3.88026-.42075-5.40101-.297-1.364-.80025-2.508-1.63075-3.41825-.8855-.968-1.969-1.69675-3.23675-2.18625-1.3145-.506-2.86-.76175-4.6255-.76175-2.2605 0-4.18551.3685-5.77776 1.10275-1.52625.704-2.77475 1.76275-3.73725 3.1735-1.023 1.49875-1.804 3.498-2.3375 5.98951-.5555 2.6015-.83325 5.72825-.83325 9.3775v16.47526c0 .89375.0467 1.61425.13475 2.16151.0688.429.14575.7095.22825.84425.0468.0743.143.15675.286.2365l.003-.005c.264.1485.6215.26675 1.0725.352.1155.022.27225.0467.44825.0715h.008c.14575.022.3135.0468.583.0935 3.12125.528 5.5 1.69675 7.14175 3.498 1.683 1.85075 2.52175 4.2735 2.52175 7.26276 0 2.05975-.3025 3.89125-.90475 5.49175v.005c-.627 1.6665-1.57575 3.0635-2.84075 4.1855-1.2485 1.10825-2.79675 1.925-4.642 2.453-1.74075.5005-3.75651.748-6.04451.748-1.3915 0-3.0525-.0632-4.9775-.18425-1.7985-.1155-3.8995-.28875-6.29201-.51975-2.16425-.209-4.0755-.37125-5.72275-.484-1.518-.10725-2.706-.15675-3.56675-.15675-1.08625 0-2.31.0522-3.6685.15675-1.44925.11275-2.97826.27225-4.58426.4785-1.7765.22825-3.24775.40425-4.4.517-1.2705.1265-2.2275.1925-2.8655.1925-1.92225 0-3.619-.253-5.08201-.75625-1.5565-.5335-2.85725-1.36125-3.883-2.4695-1.01475-1.09725-1.771-2.4915-2.25775-4.18275-.4565-1.584-.6875-3.41825-.6875-5.50276 0-3.4375.86075-6.259 2.585-8.4315.9075-1.14125 1.97725-2.00475 3.2175-2.585 1.22925-.5775 2.58501-.8635 4.07276-.8635.58575 0 1.26775.0412 2.04875.1265.71775.077 1.529.2035 2.43375.37125 1.0945.2035 1.375.18975 1.661.176.18425-.008.37125-.0192.44-.0192.594 0 1.0505-.0523 1.375-.15125.14575-.044.22275-.0743.23375-.088.0468-.055.10725-.2805.17875-.6765l.0105-.0577c.099-.57751.15125-1.36951.15125-2.37601V26.72722c0-.89375-.0577-1.6005-.165-2.10375-.055-.25025-.0138-.31625-.0413-.341-.0165-.0138-1.83425.0165-3.212.0165h-.0138c-.32175 0-.75625.022-1.3035.0715-.65176.0577-1.31726.132-1.98826.22-.80575.10725-1.55375.19525-2.244.26125-.75075.0688-1.375.10725-1.85075.10725-1.474 0-2.8105-.2585-4.0095-.77275l-.121-.0577c-1.1825-.528-2.20275-1.3035-3.0635-2.31825-.858-1.00651-1.5015-2.22201-1.92776-3.62451-.40425-1.33925-.61325-2.827-.61325-4.45225 0-2.03775.231-3.92975.6985-5.61.47851-1.72701 1.21276-3.22576 2.19726-4.41651.0358-.0412.0688-.0825.10725-.11825 1.0065-1.17975 2.21375-2.0735 3.62175-2.6785 1.4135-.605 3.003-.91025 4.77125-.91025.24475 0 .9075.044 1.9855.132.58025.0468 1.936.16775 4.14976.37125 1.60325.14575 3.6685.26675 5.75025.352 2.29075.0935 4.67225.14575 6.468.14575 2.14501 0 4.29826-.0715 6.45976-.209 2.1945-.1375 4.44675-.34375 6.743-.605l.0632-.005c.5555-.0632.979-.1045 1.28975-.12925l.055-.003c.45376-.033.78651-.0495.99551-.0495 1.19075 0 2.24125.20075 3.1405.605 1.00925.45375 1.7985 1.1385 2.35125 2.05975l.003-.003c.462.77.80025 1.82325 1.00925 3.1515.187 1.19075.28325 2.607.28325 4.23775v24.73627c.5445-.45375 1.1055-.88275 1.68025-1.2925 1.89475-1.353 3.94625-2.47225 6.13525-3.35501 2.17526-.87725 4.51001-1.529 7.00151-1.9635 2.486-.43175 5.126-.64625 7.9145-.64625 2.78576 0 5.43401.231 7.94476.69025 2.508.45925 4.862 1.155 7.05926 2.079 2.2.92676 4.202 2.08176 6.006 3.44851 1.837 1.3915 3.48975 3.014 4.95 4.851 1.0505 1.32 1.958 2.79125 2.70875 4.4055.72326 1.5565 1.29801 3.25876 1.71326 5.10401.40975 1.81775.71775 4.2845.9185 7.26.2035 2.99475.308 6.50376.308 10.38951v27.03252c0 .93775.0605 1.6995.18425 2.27975.0852.4125.187.693.29425.82775.0715.0908.20625.1705.39875.2365.3355.1155.80025.176 1.38325.176.14575 0 .43175-.0303.858-.0962.5225-.0798 1.11375-.18425 1.749-.31625.82775-.1705 1.584-.29425 2.25775-.374.7535-.088 1.4355-.132 2.035-.132 1.52075 0 2.9095.27225 4.15801.803 1.27875.5445 2.38975 1.36125 3.3275 2.43375.92125 1.056 1.61425 2.277 2.0735 3.6685.44 1.34201.66275 2.83526.66275 4.48801 0 2.12025-.2255 4.00675-.67375 5.6375-.4785 1.738-1.21 3.179-2.19725 4.3175-1.023 1.17975-2.31825 2.05976-3.87475 2.63176-1.46851.54175-3.16801.814-5.07926.814-.3355 0-1.04775-.066-2.134-.1925-.726-.0825-2.15325-.26675-4.10025-.517-1.61975-.209-3.22025-.3685-4.79601-.4785-1.5125-.10725-2.97825-.15675-4.40275-.15675-1.991 0-4.00675.0523-6.05.154-2.14775.11-4.35876.27225-6.64676.48675-2.85175.2695-4.88675.462-5.53575.517l-.0577.003c-1.37225.11825-2.2605.1815-2.67025.1815-1.9085 0-3.59976-.26125-5.06551-.78376-1.54825-.55275-2.84075-1.40525-3.8665-2.552-.99275-1.10825-1.7325-2.49975-2.211-4.158-.45375-1.57025-.682-3.3715-.682-5.39 0-1.551.1045-2.89851.30525-4.04526.22-1.26225.572-2.31275 1.0505-3.1515.561-.99 1.48225-1.79575 2.7555-2.431 1.05875-.528 2.41175-.95425 4.0535-1.28975.4565-.0908.81125-.20625 1.07251-.33825.1045-.0523.15675-.0797.1595-.0853.21175-.3135-.23926.14575-.27501-.0797-.0935-.58575-.2035-1.28425-.2035-2.09275V68.43684z"/>
</svg>